<?xml version="1.0" encoding="utf-8"?>
<svg xmlns="http://www.w3.org/2000/svg" width="32" height="32" viewBox="0 0 24 24" xmlns:bx="https://boxy-svg.com">
  <defs>
    <bx:export>
      <bx:file format="svg" href="#object-0"/>
      <bx:file format="svg" href="#object-1" path="Untitled 2.svg"/>
    </bx:export>
  </defs>
  <ellipse style="stroke-width: 0px; stroke: rgb(0, 0, 0);" cx="12.024" cy="12" rx="11.976" ry="11.952" id="object-0"/>
  <g fill="none" stroke="#888888" stroke-linecap="round" stroke-linejoin="round" stroke-width="2" transform="matrix(0.851703, 0, 0, 0.851703, 1.77956, 1.810939)" id="object-1" style="">
    <path d="M12 22v-9m3.17-10.79a1.67 1.67 0 0 1 1.63 0L21 4.57a1.93 1.93 0 0 1 0 3.36L8.82 14.79a1.66 1.66 0 0 1-1.64 0L3 12.43a1.93 1.93 0 0 1 0-3.36z" style="stroke: rgb(255, 255, 255);"/>
    <path d="M20 13v3.87a2.06 2.06 0 0 1-1.11 1.83l-6 3.08a1.93 1.93 0 0 1-1.78 0l-6-3.08A2.06 2.06 0 0 1 4 16.87V13" style="stroke: rgb(255, 255, 255);"/>
    <path d="M21 12.43a1.93 1.93 0 0 0 0-3.36L8.83 2.2a1.64 1.64 0 0 0-1.63 0L3 4.57a1.93 1.93 0 0 0 0 3.36l12.18 6.86a1.64 1.64 0 0 0 1.63 0z" style="stroke: rgb(255, 255, 255);"/>
  </g>
</svg>