<svg version="1.1" id="Layer_1" xmlns="http://www.w3.org/2000/svg" xmlns:xlink="http://www.w3.org/1999/xlink" x="0px"
	y="0px" width="100%" viewBox="0 0 1000 600" enable-background="new 0 0 1000 600" xml:space="preserve">
	<path fill="#CCCCCC" opacity="1.000000" stroke="none" d="
M773.066956,71.033165 
	C792.716736,71.487411 808.361084,83.987419 811.322266,102.779121 
	C811.587219,104.460846 813.794373,106.563370 815.546997,107.163391 
	C825.348938,110.519272 832.179871,119.497116 830.829468,127.883774 
	C828.918457,139.752716 821.092896,146.923599 809.657288,146.947754 
	C778.525391,147.013489 747.391052,147.191116 716.262512,146.861313 
	C704.281433,146.734375 695.264221,140.777878 690.785339,129.407181 
	C686.691284,119.013451 687.930176,108.623985 695.536499,100.524040 
	C706.289917,89.072731 721.170166,87.768509 734.104980,97.644867 
	C735.003662,98.331009 735.858154,99.075005 737.142639,100.127663 
	C742.969421,82.792854 754.641907,72.968544 773.066956,71.033165 
z" />
	<path fill="#0A6889" opacity="1.000000" stroke="none" d="
M441.890625,393.828400 
	C457.663025,390.019135 472.085724,390.848755 483.979279,402.872040 
	C490.945831,409.914551 494.013275,418.965759 495.652039,428.359955 
	C498.797516,446.391235 499.255524,464.457886 494.125580,482.301971 
	C490.446350,495.099915 484.127045,506.019531 471.372070,511.629974 
	C451.850189,520.216980 424.170807,515.389526 415.999725,488.299011 
	C408.949951,464.926025 408.794678,441.312164 417.371613,418.196320 
	C421.647949,406.670929 429.349182,397.930267 441.890625,393.828400 
M468.004486,481.352722 
	C468.872467,476.280334 470.217651,471.236023 470.518127,466.130249 
	C471.389069,451.331879 471.890411,436.496979 466.778778,422.192139 
	C464.816803,416.701630 461.569489,412.249634 455.215851,412.027222 
	C448.872955,411.805206 444.808563,415.854706 443.028198,421.357178 
	C440.951782,427.774689 439.289490,434.479248 438.644043,441.174591 
	C437.332458,454.779510 437.056702,468.511902 441.110565,481.770203 
	C443.049652,488.112000 445.703827,494.644745 454.050781,495.025970 
	C460.311676,495.311890 464.197266,491.638153 467.596924,482.582397 
	C467.655334,482.426758 467.730072,482.277191 468.004486,481.352722 
z" />
	<path fill="#0B6989" opacity="1.000000" stroke="none" d="
M629.742432,279.307129 
	C620.458862,269.336395 611.175354,259.365662 601.891785,249.394958 
	C601.194641,249.912811 600.497559,250.430679 599.800476,250.948532 
	C599.800476,273.378326 599.800476,295.808105 599.800476,318.446350 
	C601.212036,318.659546 602.664612,318.878937 604.595093,319.170502 
	C604.595093,343.835602 604.595093,368.576630 604.595093,393.897217 
	C609.611938,393.897217 614.170227,393.897217 618.943054,393.897217 
	C618.943054,400.733246 618.943054,406.987640 618.943054,413.703552 
	C614.359070,413.703552 609.932556,413.703552 605.029724,413.703552 
	C605.029724,421.890015 605.029724,429.638641 605.029724,437.774963 
	C596.853455,437.774963 589.148010,437.774963 580.955872,437.774963 
	C580.955872,430.048523 580.955872,422.299103 580.955872,413.951904 
	C563.442444,413.951904 546.397034,413.951904 528.843201,413.951904 
	C528.843201,407.067352 528.628967,400.771637 528.983582,394.508057 
	C529.080505,392.796234 530.696167,391.022186 531.935181,389.545410 
	C549.741333,368.322083 566.331665,346.274048 579.046509,321.512299 
	C579.724304,320.192169 581.965332,319.099548 583.577026,318.948181 
	C587.497925,318.579895 591.476807,318.828278 595.933105,318.828278 
	C595.933105,316.352264 595.933105,314.401123 595.933105,312.449982 
	C595.933105,291.952209 595.977356,271.454193 595.868835,250.956985 
	C595.857178,248.764130 594.813782,246.594421 594.523254,244.378052 
	C594.372803,243.230423 594.479858,241.782135 595.074829,240.859131 
	C596.325684,238.918457 597.975281,237.234741 599.977356,234.824066 
	C612.742737,247.477905 624.749756,259.380005 636.849426,271.846832 
	C634.542236,274.710083 632.142334,277.008606 629.742432,279.307129 
M564.530212,394.009857 
	C569.805603,394.009857 575.080994,394.009857 580.596313,394.009857 
	C580.596313,380.171478 580.596313,366.827118 580.596313,353.960480 
	C571.681946,367.042358 562.562378,380.425354 553.305481,394.009857 
	C556.900085,394.009857 560.222473,394.009857 564.530212,394.009857 
z" />
	<path fill="#cccccc" opacity="1.000000" stroke="none" d="
M867.699951,270.275116 
	C873.108948,269.651245 878.154846,269.185669 883.578918,268.685181 
	C884.837219,265.637878 886.025452,261.641144 888.031677,258.109009 
	C894.321960,247.034195 904.554932,243.246887 916.438904,245.274567 
	C928.057922,247.257034 935.685364,254.721542 938.153442,266.458466 
	C938.993225,270.452209 940.744080,272.178802 944.577759,273.026337 
	C952.776306,274.838806 958.972656,282.687561 958.938721,291.093842 
	C958.922363,295.141327 959.054016,298.167053 963.971069,299.793396 
	C967.608459,300.996460 970.222351,304.946503 968.796509,309.049316 
	C967.773254,311.993591 965.255310,314.694794 962.778809,316.751465 
	C961.349670,317.938263 958.678894,317.943146 956.566040,317.946991 
	C920.766663,318.012207 884.967163,318.015961 849.167664,317.975677 
	C841.575317,317.967133 836.712708,313.566864 837.004700,307.250702 
	C837.246765,302.012573 841.578125,298.521698 848.630432,298.046021 
	C851.088196,297.880249 853.566528,298.019562 856.702454,298.019562 
	C854.343018,286.259003 856.251343,276.435150 867.699951,270.275116 
z" />
	<path fill="#cccccc" opacity="1.000000" stroke="none" d="
M307.261658,199.747223 
	C311.322052,187.645447 319.488464,182.644745 331.465881,184.709854 
	C334.050140,185.155411 335.383942,184.614838 336.044495,181.752716 
	C340.842712,160.962387 365.096252,152.765045 381.004089,166.840790 
	C386.799561,171.968796 390.248962,178.968399 390.225342,187.489853 
	C406.049133,188.918533 411.387512,198.663544 410.080750,212.780121 
	C412.587311,214.055801 414.805725,214.791824 416.537872,216.148605 
	C420.081177,218.924042 421.002716,222.815918 419.408539,226.917419 
	C417.822357,230.998322 414.638916,233.035477 410.056702,233.028992 
	C372.729034,232.976151 335.401276,233.013214 298.073547,232.983566 
	C292.834961,232.979401 287.884888,228.096970 288.031128,223.294800 
	C288.190186,218.071503 292.312195,214.130936 297.806488,214.008438 
	C300.970581,213.937881 304.136627,213.959488 307.301117,213.900925 
	C307.576385,213.895828 307.846344,213.601379 307.137421,214.017899 
	C307.137421,208.993103 307.137421,204.571732 307.261658,199.747223 
z" />
	<path fill="#0B6989" opacity="1.000000" stroke="none" d="
M370.172119,427.000061 
	C370.172119,441.122498 370.172119,454.744934 370.172119,468.867188 
	C375.097656,468.867188 379.675690,468.867188 384.540466,468.867188 
	C384.540466,475.614777 384.540466,481.870300 384.540466,488.619141 
	C380.066895,488.619141 375.488495,488.619141 370.459290,488.619141 
	C370.459290,496.836945 370.459290,504.589478 370.459290,512.755005 
	C362.301575,512.755005 354.578278,512.755005 346.400970,512.755005 
	C346.400970,505.149323 346.400970,497.389496 346.400970,489.109741 
	C328.919861,489.109741 311.871399,489.109741 294.176331,489.109741 
	C294.176331,482.179504 294.024536,475.747864 294.294769,469.334045 
	C294.354156,467.924774 295.754578,466.441681 296.805542,465.223999 
	C315.016876,444.122894 331.429169,421.779633 344.405640,397.017883 
	C345.114319,395.665619 346.869324,394.029694 348.198547,393.973480 
	C355.312012,393.672455 362.444916,393.831421 370.172089,393.831421 
	C370.172089,404.974792 370.172089,415.737427 370.172119,427.000061 
M340.271179,437.734009 
	C333.130554,448.055573 325.989929,458.377167 318.887024,468.644226 
	C327.883423,468.644226 336.931610,468.644226 345.702271,468.644226 
	C345.702271,455.321564 345.702271,442.358032 345.702271,428.226654 
	C343.617798,431.924408 342.150543,434.527222 340.271179,437.734009 
z" />
	<path fill="#0D6989" opacity="1.000000" stroke="none" d="
M853.134155,512.845398 
	C852.592957,515.083435 852.051819,517.321411 851.406372,519.990784 
	C862.787964,519.990784 873.905640,519.983826 885.023315,519.998413 
	C886.685852,520.000549 888.765137,519.497986 889.919983,520.292480 
	C892.031067,521.744873 894.545654,523.731506 895.159607,525.970398 
	C896.028015,529.136780 893.801025,531.666504 890.422485,532.443481 
	C888.825195,532.810852 887.124268,532.832031 885.470276,532.832458 
	C814.341980,532.849976 743.213745,532.847534 672.085449,532.847351 
	C671.252563,532.847351 670.418701,532.869324 669.586975,532.838074 
	C665.447998,532.682800 662.398132,530.993225 661.962463,526.553528 
	C661.596375,522.822815 664.956665,520.035645 669.736755,520.014160 
	C683.556458,519.951843 697.376648,519.992065 711.408325,519.992065 
	C710.925232,517.552917 710.485535,515.333130 710.490295,512.653198 
	C715.940063,512.132874 720.945374,512.072754 726.239746,512.243042 
	C728.697388,511.674133 732.322571,511.368713 732.789307,509.992340 
	C735.164368,502.987701 739.203064,498.387787 746.839172,497.927979 
	C754.859131,497.445007 759.340271,502.134674 762.044800,509.404053 
	C762.080139,510.764648 762.174011,511.756714 762.173340,513.142456 
	C761.636047,515.592712 761.193298,517.649170 760.721680,519.839661 
	C764.152954,519.839661 767.435303,519.839661 770.754150,519.839661 
	C770.369385,517.422607 770.011353,515.173157 770.138367,512.843994 
	C776.594177,512.750793 782.567810,512.623230 788.534424,512.773560 
	C791.393799,512.845581 792.582642,511.911591 792.007324,508.686188 
	C794.657104,503.120758 798.023621,498.785065 804.280029,497.936066 
	C813.767517,496.648682 818.663269,502.416107 821.619202,509.936584 
	C824.724304,506.323730 826.956726,502.374115 830.318848,500.080383 
	C838.741150,494.334351 847.942505,498.306793 852.820374,509.543762 
	C852.888672,510.887482 853.011414,511.866425 853.134155,512.845398 
M832.149414,507.125671 
	C829.176453,511.973480 829.281067,515.518616 833.017578,518.405945 
	C836.263672,520.914246 839.831970,521.343933 843.762695,517.821411 
	C846.793884,514.052185 846.972961,510.110718 843.444031,506.796967 
	C840.166443,503.719177 836.342834,503.871765 832.149414,507.125671 
M753.495911,517.500061 
	C756.047180,513.500610 756.205566,509.479187 752.398132,506.382690 
	C749.084290,503.687653 745.371460,503.928467 741.379517,507.270538 
	C738.839478,511.358154 738.980713,515.438904 742.697021,518.464783 
	C745.879395,521.056030 749.653687,521.377625 753.495911,517.500061 
M812.555603,517.651367 
	C815.021362,513.798523 815.539673,509.836914 811.841064,506.638611 
	C808.716125,503.936279 805.078308,503.620483 801.096741,507.099060 
	C798.143066,511.324890 798.239075,515.056519 801.382263,518.190308 
	C804.193481,520.993042 808.067261,520.913452 812.555603,517.651367 
z" />
	<path fill="#FAB703" opacity="1.000000" stroke="none" d="
M762.103271,509.035553 
	C759.340271,502.134674 754.859131,497.445007 746.839172,497.927979 
	C739.203064,498.387787 735.164368,502.987701 732.789307,509.992340 
	C732.322571,511.368713 728.697388,511.674133 726.269531,512.227173 
	C726.010193,511.980835 726.067444,511.944977 726.480225,511.963684 
	C727.591003,510.909027 728.829224,509.870056 728.900146,508.756683 
	C729.393921,501.007385 729.427673,493.225739 730.027893,485.486969 
	C730.849121,474.897705 732.535278,464.428894 738.447998,455.290771 
	C739.468567,453.713379 741.954773,452.302582 743.836731,452.203979 
	C750.785461,451.839905 757.767578,452.164581 764.730225,451.975647 
	C766.256409,451.934235 767.754150,450.844360 769.264954,450.237305 
	C769.255615,459.478394 769.246277,468.719421 769.222412,478.812134 
	C769.179077,484.015686 769.150269,488.367584 769.303040,493.106934 
	C770.111084,493.675873 770.737793,494.016937 771.364075,494.016113 
	C801.286072,493.976227 831.208130,493.906799 861.130127,493.840729 
	C861.130127,493.840729 861.133240,493.912262 861.122314,494.345154 
	C861.099060,496.748169 861.082397,498.718292 861.075134,500.688477 
	C861.048950,507.791199 860.067932,508.808350 852.874817,509.179047 
	C847.942505,498.306793 838.741150,494.334351 830.318848,500.080383 
	C826.956726,502.374115 824.724304,506.323730 821.619202,509.936584 
	C818.663269,502.416107 813.767517,496.648682 804.280029,497.936066 
	C798.023621,498.785065 794.657104,503.120758 791.542847,508.679810 
	C781.375549,509.030731 771.739441,509.033142 762.103271,509.035553 
M763.147705,491.147919 
	C763.147705,479.635864 763.147705,468.123779 763.147705,456.403259 
	C755.366577,456.403259 748.136963,456.403259 740.276917,456.540558 
	C732.643494,467.836029 732.166443,480.582733 731.984619,493.796112 
	C742.079102,493.796112 751.388672,493.835693 760.696289,493.721985 
	C761.453735,493.712738 762.198242,492.655151 763.147705,491.147919 
z" />
	<path fill="#0B6989" opacity="1.000000" stroke="none" d="
M239.544006,517.936523 
	C246.359619,518.010498 253.175888,518.047607 259.990662,518.169250 
	C266.225342,518.280396 269.909882,521.419373 269.799194,526.405579 
	C269.695190,531.091919 266.061890,533.987854 260.007202,533.992371 
	C225.400772,534.018311 190.794312,534.017029 156.187881,533.994141 
	C149.835144,533.989990 146.178925,531.007935 146.267441,526.091858 
	C146.356796,521.128601 149.981293,518.239746 156.361969,518.169800 
	C162.350830,518.104065 168.340744,518.134888 175.232208,518.089111 
	C177.550156,518.037720 178.966110,518.020447 180.557465,518.296021 
	C181.111069,523.081055 183.900055,525.380798 188.035751,525.949097 
	C192.136444,526.512573 195.330612,523.471863 197.507721,517.998169 
	C204.618439,517.977661 211.267654,517.896423 217.958649,518.200867 
	C219.323730,523.981873 222.592087,526.634827 227.158524,525.968079 
	C231.797363,525.290649 233.505249,521.863892 234.992081,517.937988 
	C235.850113,517.940552 236.338928,517.912415 237.161285,517.980713 
	C238.177872,518.030212 238.860947,517.983398 239.544006,517.936523 
z" />
	<path fill="#FEAA42" opacity="1.000000" stroke="none" d="
M692.144348,352.467651 
	C690.877258,352.549774 689.610229,352.631897 686.844482,352.811188 
	C688.999695,350.059265 690.206421,348.518463 691.886597,346.549622 
	C696.447388,341.869446 700.534546,337.617371 704.621704,333.365295 
	C706.447205,332.146332 708.272644,330.927307 709.403931,330.171844 
	C711.592773,333.325287 713.017700,336.212677 715.176025,338.364655 
	C760.298279,383.354858 805.504395,428.261078 850.689331,473.188477 
	C852.104248,474.595337 853.469666,476.052032 855.019043,477.934631 
	C855.179871,478.383789 855.329041,478.628052 854.935181,478.706085 
	C854.009949,478.739502 853.478577,478.694885 852.810303,478.478943 
	C852.438416,478.122253 852.175537,477.994385 851.745972,477.627747 
	C845.706604,471.998566 839.750977,466.724884 833.915161,461.321747 
	C815.160400,443.957458 796.411072,426.586884 777.733582,409.139587 
	C760.262024,392.818787 742.915833,376.363770 725.448486,360.038452 
	C719.635498,354.605530 713.355408,349.649750 707.783813,343.988708 
	C703.898071,340.040527 701.461304,340.840820 698.675293,345.159912 
	C696.298279,347.686096 694.221313,350.076874 692.144348,352.467651 
z" />
	<path fill="#CCCCCC" opacity="1.000000" stroke="none" d="
M174.523560,333.327240 
	C180.181366,334.994110 184.150681,337.765686 185.153076,343.706635 
	C185.307266,344.620483 186.646637,345.633362 187.663315,346.048981 
	C191.324036,347.545471 193.592331,350.009918 194.570068,353.910797 
	C194.961227,355.471497 196.355988,356.753357 197.064255,358.269440 
	C197.790115,359.823212 199.110443,361.926239 198.583008,363.030792 
	C197.912079,364.435852 195.688782,365.820007 194.057953,365.916595 
	C188.252991,366.260315 182.415466,366.055115 176.590271,366.055634 
	C166.437775,366.056488 156.285202,366.077911 146.132828,366.042358 
	C143.087616,366.031708 139.136734,366.962372 139.150909,362.084961 
	C139.163284,357.829498 142.644608,357.963837 145.716003,357.926758 
	C146.192627,357.921021 146.667007,357.729370 147.125824,357.627411 
	C147.155792,347.631683 148.712936,345.850830 158.546799,343.916870 
	C159.551971,343.719208 160.696503,342.589172 161.170013,341.601227 
	C163.807037,336.099091 168.070480,333.289246 174.523560,333.327240 
z" />
	<path fill="#0A6889" opacity="1.000000" stroke="none" d="
M852.947205,478.650269 
	C853.478577,478.694885 854.009949,478.739502 855.041382,478.770325 
	C855.541504,478.756561 855.786743,478.683716 855.786743,478.683716 
	C858.931152,478.715607 860.652405,479.943542 860.211426,483.441498 
	C859.848938,486.317047 859.795715,489.231598 858.940186,492.518311 
	C849.973206,492.948608 841.671326,493.046509 833.369812,493.019226 
	C811.953552,492.948853 790.537537,492.823090 769.121460,492.719513 
	C769.150269,488.367584 769.179077,484.015686 769.289551,479.267487 
	C774.255005,478.842865 779.138977,478.814514 784.907349,478.774048 
	C788.476501,478.714386 791.161133,478.666840 794.316833,478.712646 
	C802.836304,478.767273 810.884766,478.728455 819.319458,478.770325 
	C820.485168,478.778625 821.264648,478.706268 822.504456,478.706696 
	C832.311646,478.731720 841.658508,478.683960 851.323181,478.737061 
	C852.076355,478.775360 852.511780,478.712830 852.947205,478.650269 
z" />
	<path fill="#DB7D05" opacity="1.000000" stroke="none" d="
M822.044189,478.633942 
	C821.264648,478.706268 820.485168,478.778625 819.127563,478.522400 
	C809.713928,469.524475 800.878357,460.855103 791.870972,451.903168 
	C790.175049,450.071930 788.650879,448.523254 787.126770,446.974609 
	C755.635681,415.632996 724.144531,384.291412 692.398865,352.708740 
	C694.221313,350.076874 696.298279,347.686096 698.829346,345.456177 
	C701.424500,348.146057 703.467163,350.766541 705.722351,353.189178 
	C719.969177,368.493744 734.222717,383.792389 748.551697,399.019958 
	C766.072327,417.639374 783.667358,436.188660 801.234070,454.764709 
	C807.280151,461.158051 813.389099,467.493256 819.346069,473.968384 
	C820.533264,475.258820 821.159363,477.065369 822.044189,478.633942 
z" />
	<path fill="#cccccc" opacity="1.000000" stroke="none" d="
M673.663879,254.965302 
	C677.649048,257.288330 680.072754,260.436829 678.750793,264.595551 
	C677.400024,268.844849 673.889038,271.066162 669.156494,271.020905 
	C661.353638,270.946228 653.549011,271.050629 645.746033,270.982178 
	C640.774841,270.938599 636.646973,267.716797 636.094727,263.385101 
	C635.462402,258.425568 639.149780,256.636322 642.397339,253.843506 
	C647.304871,249.623169 652.563293,247.282608 658.646240,245.483459 
	C661.728821,244.571686 664.247681,242.029663 667.735535,243.889633 
	C671.253296,245.765564 673.164307,248.638535 673.020203,252.745499 
	C672.997864,253.381439 673.272339,254.027802 673.663879,254.965302 
z" />
	<path fill="#CCcccc" opacity="1.000000" stroke="none" d="
M91.618576,136.956207 
	C93.153442,136.317902 94.205482,135.419540 95.410851,135.100540 
	C98.299835,134.335938 101.671028,132.709351 104.071411,133.577301 
	C106.242737,134.362427 108.073921,137.806473 108.776215,140.421539 
	C109.397911,142.736557 110.063179,144.155548 111.835571,145.936966 
	C113.711304,147.822235 115.120270,151.777710 114.428360,154.159378 
	C113.738983,156.532333 110.292198,159.552170 107.876801,159.719162 
	C98.592903,160.360962 89.229660,160.199112 79.912781,159.866760 
	C75.591606,159.712616 72.480568,156.466858 72.563614,152.416519 
	C72.620422,149.645660 74.993858,146.673431 76.925735,144.268478 
	C78.477692,142.336472 80.757103,140.786942 83.013222,139.675842 
	C85.569801,138.416763 88.460205,137.835526 91.618576,136.956207 
z" />
	<path fill="#FC9311" opacity="1.000000" stroke="none" d="
M177.990707,430.986359 
	C177.990707,423.875610 177.990707,416.764862 177.990707,409.815430 
	C177.560623,409.460175 177.352768,409.208862 177.085800,409.080994 
	C175.466553,408.305481 173.833832,407.558136 172.205627,406.801392 
	C173.930344,405.986237 175.642929,404.494995 177.381714,404.463806 
	C190.303879,404.232025 203.231247,404.290039 217.030365,404.133392 
	C219.334625,404.034088 220.765549,404.058502 222.634415,404.100586 
	C225.743500,404.116211 228.414627,404.114105 231.483948,404.106384 
	C233.575302,403.563416 235.268463,403.026031 237.261169,402.449341 
	C237.761902,402.419617 237.963074,402.429260 238.164261,402.438873 
	C238.244980,402.755310 238.224258,403.173462 238.422943,403.371613 
	C239.671387,404.616638 240.968643,405.812744 242.249756,407.025024 
	C240.504547,407.949951 238.759354,408.874847 236.432663,410.107941 
	C236.432663,416.420746 236.432663,423.295074 236.261536,430.759460 
	C235.006012,430.746490 233.921600,430.143433 232.838089,429.523346 
	C232.838989,429.506317 232.873230,429.490479 232.981216,429.001007 
	C233.089203,422.119110 233.089203,415.726654 233.089203,409.407043 
	C227.001236,408.464508 227.001236,408.464508 225.844604,411.373901 
	C225.842270,411.551727 225.722580,411.886688 225.484741,412.231812 
	C225.439438,416.785400 225.631958,420.993896 225.899551,425.579071 
	C225.890198,427.204559 225.805771,428.453369 225.509918,429.959167 
	C224.191574,430.406433 223.084625,430.596710 222.002884,430.352173 
	C221.981171,427.262909 221.934265,424.608490 221.955566,421.501343 
	C221.979446,417.664520 221.935120,414.280487 221.909225,410.473999 
	C219.585251,409.573761 217.242828,409.095947 214.235626,408.482574 
	C214.235626,416.501251 214.235626,423.597198 214.042084,430.968872 
	C212.897049,431.158630 211.945572,431.072723 211.023987,430.519958 
	C211.053879,423.116058 211.053879,416.179016 211.053879,409.163513 
	C208.186188,409.163513 205.931747,409.163513 203.159042,409.163513 
	C203.159042,416.534637 203.159042,423.652527 202.969757,431.038696 
	C201.851028,431.199371 200.921555,431.091766 200.021484,430.517426 
	C200.050873,423.154449 200.050873,416.258179 200.050873,409.315125 
	C197.339737,409.315125 195.164246,409.315125 192.852249,409.315125 
	C192.852249,416.823212 192.852249,423.921844 192.583588,431.129578 
	C191.253342,431.164337 190.191757,431.090027 189.159271,430.546753 
	C189.188370,423.146698 189.188370,416.215546 189.188370,409.127991 
	C186.317200,409.127991 184.065414,409.127991 181.225327,409.127991 
	C181.225327,416.479980 181.225327,423.591858 181.030029,430.976807 
	C179.886734,431.162018 178.938721,431.074188 177.990707,430.986359 
z" />
	<path fill="#FF8C01" opacity="1.000000" stroke="none" d="
M725.980469,511.996735 
	C720.945374,512.072754 715.940063,512.132874 710.475525,512.276550 
	C706.317749,512.276489 702.619263,512.192810 698.455688,511.598633 
	C697.970154,505.413879 697.949585,499.739594 698.397461,493.972412 
	C705.663757,493.871521 712.464111,493.953796 719.257263,493.771454 
	C720.463989,493.739075 721.641235,492.606354 722.900757,491.535553 
	C724.503662,479.544464 726.037903,467.999512 727.639526,455.947968 
	C720.776489,455.947968 712.871826,455.947968 705.104370,455.643646 
	C706.205811,453.378174 707.170166,451.416992 708.134521,449.455811 
	C717.056641,449.454163 725.978821,449.452515 735.325195,449.791443 
	C733.822754,454.497620 731.427551,458.721344 730.053833,463.254547 
	C725.233215,479.162689 725.392212,495.548035 726.067444,511.944977 
	C726.067444,511.944977 726.010193,511.980835 725.980469,511.996735 
M717.173401,506.586273 
	C714.533142,503.824341 703.848267,503.673645 698.912781,506.897705 
	C705.325012,506.897705 710.901489,506.897705 717.173401,506.586273 
M706.604675,498.971527 
	C704.291626,499.081696 701.978577,499.191864 699.665588,499.302063 
	C699.701477,499.652374 699.737366,500.002716 699.773254,500.353058 
	C705.604492,500.353058 711.435669,500.353058 717.266907,500.353058 
	C717.264587,499.897461 717.262329,499.441833 717.260010,498.986237 
	C714.023621,498.986237 710.787170,498.986237 706.604675,498.971527 
z" />
	<path fill="#0B6989" opacity="1.000000" stroke="none" d="
M640.017944,274.680359 
	C653.657471,288.189240 667.296936,301.698120 680.887817,315.783630 
	C678.511414,318.634338 676.183655,320.908386 673.855896,323.182465 
	C660.270691,309.752991 646.685547,296.323517 633.045410,282.318665 
	C635.333008,279.389008 637.675476,277.034668 640.017944,274.680359 
z" />
	<path fill="#18718F" opacity="1.000000" stroke="none" d="
M227.455841,448.089294 
	C222.061661,451.605927 216.667480,455.122559 210.569412,459.098083 
	C217.480103,463.662048 224.029175,467.987183 231.461578,472.895691 
	C224.073563,477.596924 217.443939,481.815552 210.446548,486.268219 
	C215.597702,489.521179 220.221313,492.441010 224.612823,495.724976 
	C222.680191,496.026489 220.979675,495.963837 219.072861,495.618042 
	C215.744415,493.430298 212.696838,491.381989 209.458466,489.701355 
	C208.370499,489.136749 206.511185,488.988037 205.497284,489.545563 
	C202.026154,491.454193 198.773911,493.760834 195.040314,495.960114 
	C192.767151,495.989197 190.891830,495.973846 189.016525,495.958496 
	C193.807602,492.756195 198.598663,489.553864 204.080627,485.889771 
	C197.153290,481.522125 190.643646,477.417877 183.114136,472.670593 
	C190.286636,468.026428 196.853088,463.774658 204.230774,458.997650 
	C198.284668,455.335876 192.858719,451.994415 187.669678,448.304810 
	C189.560303,447.994049 191.213989,448.031433 193.063919,448.350677 
	C197.915924,451.387207 202.610397,456.366089 207.216873,456.285950 
	C212.054001,456.201752 216.807556,451.271942 221.592606,448.451233 
	C221.724380,448.373566 221.798752,448.198486 222.359482,448.011108 
	C224.364670,447.998718 225.910248,448.044006 227.455841,448.089294 
M211.535583,463.739960 
	C209.497818,463.213623 206.898773,461.621552 205.520462,462.347412 
	C199.875824,465.320190 194.603455,468.999908 188.664154,472.754333 
	C194.616928,476.506012 200.033752,479.993835 205.550446,483.315826 
	C206.363113,483.805176 207.918396,483.956909 208.673248,483.503815 
	C214.315445,480.116913 219.842697,476.538513 225.841415,472.744690 
	C220.880753,469.597137 216.545349,466.846344 211.535583,463.739960 
z" />
	<path fill="#0B6989" opacity="1.000000" stroke="none" d="
M704.316162,333.128174 
	C700.534546,337.617371 696.447388,341.869446 692.111328,346.267517 
	C686.011353,340.710358 680.160156,335.007233 674.192871,328.777954 
	C678.341492,324.091949 682.606201,319.932068 686.870911,315.772186 
	C692.584167,321.478485 698.297363,327.184753 704.316162,333.128174 
z" />
	<path fill="#FEAA42" opacity="1.000000" stroke="none" d="
M188.551727,495.990051 
	C190.891830,495.973846 192.767151,495.989197 195.548981,496.023254 
	C204.063400,495.995026 211.671295,495.948090 219.279175,495.901184 
	C220.979675,495.963837 222.680191,496.026489 224.802979,496.012390 
	C229.039337,495.988678 232.883026,495.786621 236.652527,496.223938 
	C238.102768,496.392181 240.536240,497.994751 240.554184,498.979614 
	C240.664612,505.042389 240.212418,511.115448 239.745697,517.560791 
	C238.860947,517.983398 238.177872,518.030212 237.225403,517.523865 
	C236.966187,513.157104 236.800247,509.332672 237.034973,505.532990 
	C237.280731,501.554565 235.969681,499.875275 231.705673,499.922150 
	C213.798721,500.118988 195.888763,500.043488 177.597565,500.041656 
	C176.193939,500.034424 175.172684,500.053223 174.151413,500.071991 
	C173.733383,496.870544 175.699249,496.130066 178.297562,496.094574 
	C181.560394,496.049988 184.823776,496.044098 188.551727,495.990051 
z" />
	<path fill="#FEC83F" opacity="1.000000" stroke="none" d="
M726.480225,511.963684 
	C725.392212,495.548035 725.233215,479.162689 730.053833,463.254547 
	C731.427551,458.721344 733.822754,454.497620 735.779724,449.816711 
	C746.735657,449.446655 757.661377,449.391907 768.926025,449.787231 
	C767.754150,450.844360 766.256409,451.934235 764.730225,451.975647 
	C757.767578,452.164581 750.785461,451.839905 743.836731,452.203979 
	C741.954773,452.302582 739.468567,453.713379 738.447998,455.290771 
	C732.535278,464.428894 730.849121,474.897705 730.027893,485.486969 
	C729.427673,493.225739 729.393921,501.007385 728.900146,508.756683 
	C728.829224,509.870056 727.591003,510.909027 726.480225,511.963684 
z" />
	<path fill="#FEAA42" opacity="1.000000" stroke="none" d="
M221.977692,430.786987 
	C223.084625,430.596710 224.191574,430.406433 225.733124,430.311493 
	C228.390900,430.118011 230.614044,429.829163 232.837189,429.540344 
	C233.921600,430.143433 235.006012,430.746490 236.361557,431.226379 
	C237.439667,431.249207 238.448181,431.136963 239.020538,431.583618 
	C242.439499,434.251556 241.415817,445.315765 237.241135,447.329987 
	C236.877060,445.942413 236.867294,445.000061 236.899872,443.629028 
	C236.933624,435.532562 236.403488,434.986816 228.783386,434.997009 
	C211.843735,435.019653 194.904068,435.056122 177.582794,435.062744 
	C176.182007,435.055695 175.162811,435.072906 174.143631,435.090118 
	C175.179810,433.751648 176.215973,432.413177 177.621429,431.030518 
	C178.938721,431.074188 179.886734,431.162018 181.450348,431.092438 
	C184.420700,430.961914 186.775452,430.988831 189.130188,431.015717 
	C190.191757,431.090027 191.253342,431.164337 193.031494,431.154968 
	C195.829407,431.042236 197.910751,431.013184 199.992096,430.984131 
	C200.921555,431.091766 201.851028,431.199371 203.394699,431.129456 
	C206.337296,430.963562 208.665695,430.975189 210.994080,430.986816 
	C211.945572,431.072723 212.897049,431.158630 214.431686,431.077393 
	C216.358139,430.911438 217.701431,430.912659 219.411926,430.904175 
	C220.511978,430.858643 221.244827,430.822815 221.977692,430.786987 
z" />
	<path fill="#cccccc" opacity="1.000000" stroke="none" d="
M236.961609,402.488678 
	C235.268463,403.026031 233.575302,403.563416 231.527191,403.741333 
	C229.451111,400.912659 227.502350,398.567993 226.066315,395.942871 
	C224.256607,392.634613 222.855164,392.655396 221.011841,396.060120 
	C220.939514,397.120148 221.119064,398.080414 221.431183,399.448883 
	C221.774658,401.265686 221.985550,402.674316 222.196457,404.082886 
	C220.765549,404.058502 219.334625,404.034088 217.476288,403.963562 
	C217.380386,398.475769 217.326752,392.971832 218.191406,387.616211 
	C218.690659,384.523773 220.671951,381.670654 222.354675,378.265900 
	C223.187912,377.982178 223.652710,378.142365 224.282303,378.586365 
	C226.586792,378.916565 228.726501,378.962982 230.866180,379.009369 
	C231.504822,383.591614 232.143463,388.173828 232.479950,393.126526 
	C228.589066,393.773651 230.092148,395.765839 231.211288,397.045654 
	C232.940979,399.023590 235.026825,400.690094 236.961609,402.488678 
z" />
	<path fill="#DB7D05" opacity="1.000000" stroke="none" d="
M174.085510,435.539612 
	C175.162811,435.072906 176.182007,435.055695 177.594208,435.497437 
	C178.028000,444.008881 178.028000,444.004700 186.194565,444.010986 
	C203.082214,444.023956 219.969849,444.041840 236.857513,444.057709 
	C236.867294,445.000061 236.877060,445.942413 236.871643,447.238525 
	C233.999954,447.724823 231.143463,447.857361 227.871399,448.039581 
	C225.910248,448.044006 224.364670,447.998718 221.903824,447.936218 
	C211.614944,447.968933 202.241318,448.018890 192.867691,448.068848 
	C191.213989,448.031433 189.560303,447.994049 187.499451,448.024597 
	C186.441147,448.015900 185.791672,447.893433 185.138611,447.869415 
	C173.943222,447.457977 173.943130,447.460663 174.085510,435.539612 
z" />
	<path fill="#FEAA42" opacity="1.000000" stroke="none" d="
M707.742920,449.322693 
	C707.170166,451.416992 706.205811,453.378174 704.723755,455.732727 
	C703.423523,456.193634 702.640991,456.261200 701.512451,456.343597 
	C695.419312,467.421204 694.898438,479.552612 694.207092,491.603241 
	C694.164246,492.350281 696.630310,493.241272 697.929077,494.065308 
	C697.949585,499.739594 697.970154,505.413879 697.996094,511.557861 
	C694.016235,513.463135 691.927795,512.844360 691.907959,507.827393 
	C691.848633,492.849487 691.866516,477.893646 696.163574,463.378479 
	C697.278503,459.612427 699.358276,456.134521 700.962708,452.510040 
	C702.215271,449.680420 704.289673,448.503204 707.742920,449.322693 
z" />
	<path fill="#FAB703" opacity="1.000000" stroke="none" d="
M787.113770,447.444458 
	C788.650879,448.523254 790.175049,450.071930 791.824524,452.355896 
	C792.581848,461.600555 793.213867,470.109894 793.845825,478.619263 
	C791.161133,478.666840 788.476501,478.714386 785.435791,478.688629 
	C784.273010,474.982086 782.766052,471.350250 786.389221,468.136139 
	C787.142212,467.468231 787.070679,465.679443 787.085632,464.403809 
	C787.150208,458.907990 787.105591,453.410950 787.113770,447.444458 
z" />
	<path fill="#FC9311" opacity="1.000000" stroke="none" d="
M218.318787,374.272186 
	C218.237595,371.614075 217.145844,368.288086 218.343857,366.475403 
	C219.689148,364.439880 223.267410,362.537750 225.571930,362.844910 
	C228.021957,363.171509 230.117737,366.155762 232.368195,367.979492 
	C232.160263,368.235870 231.952347,368.492249 231.233368,368.918030 
	C230.288956,369.371216 229.855621,369.655029 229.022736,369.972748 
	C225.188385,371.428467 221.753586,372.850342 218.318787,374.272186 
z" />
	<path fill="#E0B13C" opacity="1.000000" stroke="none" d="
M769.302979,493.106934 
	C790.537537,492.823090 811.953552,492.948853 833.369812,493.019226 
	C841.671326,493.046509 849.973206,492.948608 858.662720,492.899780 
	C859.564392,493.015472 860.078308,493.139160 860.861145,493.551788 
	C831.208130,493.906799 801.286072,493.976227 771.364075,494.016113 
	C770.737793,494.016937 770.111084,493.675873 769.302979,493.106934 
z" />
	<path fill="#E0B13C" opacity="1.000000" stroke="none" d="
M852.820374,509.543762 
	C860.067932,508.808350 861.048950,507.791199 861.075134,500.688477 
	C861.082397,498.718292 861.099060,496.748169 861.129150,494.304443 
	C862.053467,495.190918 863.315979,496.443665 863.767395,497.940948 
	C864.226624,499.463959 863.894897,501.227905 863.895386,502.886353 
	C863.898499,512.804260 863.816101,512.885864 853.563843,512.857361 
	C853.011414,511.866425 852.888672,510.887482 852.820374,509.543762 
z" />
	<path fill="#DB7D05" opacity="1.000000" stroke="none" d="
M174.089478,500.530548 
	C175.172684,500.053223 176.193939,500.034424 177.604919,500.497314 
	C177.997467,503.931000 177.671844,506.936157 178.137161,509.813416 
	C178.381958,511.327087 180.009567,512.617126 180.946503,514.342957 
	C180.714172,515.786255 180.548111,516.894653 180.382050,518.003113 
	C178.966110,518.020447 177.550156,518.037720 175.713470,518.008179 
	C174.870987,512.303955 174.449265,506.646515 174.089478,500.530548 
z" />
	<path fill="#FEAA42" opacity="1.000000" stroke="none" d="
M686.907959,315.417786 
	C682.606201,319.932068 678.341492,324.091949 673.926636,328.554199 
	C669.972412,327.741425 669.966125,327.600372 673.701904,323.470490 
	C676.183655,320.908386 678.511414,318.634338 681.052979,316.076172 
	C683.136719,315.371460 684.385010,310.106873 686.907959,315.417786 
z" />
	<path fill="#FEAA42" opacity="1.000000" stroke="none" d="
M640.223389,274.368958 
	C637.675476,277.034668 635.333008,279.389008 632.841675,282.000275 
	C630.389893,283.243652 628.500000,283.621643 629.540894,279.643677 
	C632.142334,277.008606 634.542236,274.710083 637.067261,272.159729 
	C639.627441,270.582581 641.157043,270.620361 640.223389,274.368958 
z" />
	<path fill="#E0B13C" opacity="1.000000" stroke="none" d="
M229.422302,369.938873 
	C229.855621,369.655029 230.288956,369.371216 230.985062,369.093323 
	C231.151154,372.132568 231.054459,375.165894 230.911987,378.604279 
	C228.726501,378.962982 226.586792,378.916565 224.403778,378.233826 
	C226.047745,375.044647 227.735031,372.491760 229.422302,369.938873 
z" />
	<path fill="#131110" opacity="1.000000" stroke="none" d="
M229.022751,369.972748 
	C227.735031,372.491760 226.047745,375.044647 224.238983,377.950043 
	C223.652710,378.142365 223.187912,377.982178 222.360916,377.891541 
	C220.857071,376.904785 219.715439,375.848450 218.446289,374.532166 
	C221.753586,372.850342 225.188385,371.428467 229.022751,369.972748 
z" />
	<path fill="#0A6889" opacity="1.000000" stroke="none" d="
M237.261169,402.449341 
	C235.026825,400.690094 232.940979,399.023590 231.211288,397.045654 
	C230.092148,395.765839 228.589066,393.773651 232.575195,393.492218 
	C240.031433,392.644012 237.984985,397.796417 238.189880,401.944153 
	C237.963074,402.429260 237.761902,402.419617 237.261169,402.449341 
z" />
	<path fill="#DB7D05" opacity="1.000000" stroke="none" d="
M855.706909,478.535309 
	C855.786743,478.683716 855.541504,478.756561 855.435303,478.692322 
	C855.329041,478.628052 855.179871,478.383789 855.091858,478.271820 
	C855.236023,478.168610 855.443787,478.244293 855.706909,478.535309 
z" />
	<path fill="transparent" opacity="1.000000" stroke="none" d="
M467.900879,481.738770 
	C467.730072,482.277191 467.655334,482.426758 467.596924,482.582397 
	C464.197266,491.638153 460.311676,495.311890 454.050781,495.025970 
	C445.703827,494.644745 443.049652,488.112000 441.110565,481.770203 
	C437.056702,468.511902 437.332458,454.779510 438.644043,441.174591 
	C439.289490,434.479248 440.951782,427.774689 443.028198,421.357178 
	C444.808563,415.854706 448.872955,411.805206 455.215851,412.027222 
	C461.569489,412.249634 464.816803,416.701630 466.778778,422.192139 
	C471.890411,436.496979 471.389069,451.331879 470.518127,466.130249 
	C470.217651,471.236023 468.872467,476.280334 467.900879,481.738770 
z" />
	<path fill="transparent" opacity="1.000000" stroke="none" d="
M564.037598,394.009857 
	C560.222473,394.009857 556.900085,394.009857 553.305481,394.009857 
	C562.562378,380.425354 571.681946,367.042358 580.596313,353.960480 
	C580.596313,366.827118 580.596313,380.171478 580.596313,394.009857 
	C575.080994,394.009857 569.805603,394.009857 564.037598,394.009857 
z" />
	<path fill="transparent" opacity="1.000000" stroke="none" d="
M340.477234,437.432037 
	C342.150543,434.527222 343.617798,431.924408 345.702271,428.226654 
	C345.702271,442.358032 345.702271,455.321564 345.702271,468.644226 
	C336.931610,468.644226 327.883423,468.644226 318.887024,468.644226 
	C325.989929,458.377167 333.130554,448.055573 340.477234,437.432037 
z" />
	<path fill="#DB7D05" opacity="1.000000" stroke="none" d="
M762.044800,509.404053 
	C771.739441,509.033142 781.375549,509.030731 791.476196,509.034668 
	C792.582642,511.911591 791.393799,512.845581 788.534424,512.773560 
	C782.567810,512.623230 776.594177,512.750793 769.738159,512.751587 
	C766.657898,512.742249 764.462891,512.745483 762.267883,512.748779 
	C762.174011,511.756714 762.080139,510.764648 762.044800,509.404053 
z" />
	<path fill="#FEAA42" opacity="1.000000" stroke="none" d="
M811.929932,517.973633 
	C808.067261,520.913452 804.193481,520.993042 801.382263,518.190308 
	C798.239075,515.056519 798.143066,511.324890 801.596313,507.234009 
	C805.373840,510.903839 808.651917,514.438721 811.929932,517.973633 
z" />
	<path fill="#FEAA42" opacity="1.000000" stroke="none" d="
M752.879150,517.942322 
	C749.653687,521.377625 745.879395,521.056030 742.697021,518.464783 
	C738.980713,515.438904 738.839478,511.358154 742.032837,507.309143 
	C746.083862,510.879272 749.481506,514.410828 752.879150,517.942322 
z" />
	<path fill="#FF8C01" opacity="1.000000" stroke="none" d="
M832.775879,506.768127 
	C836.342834,503.871765 840.166443,503.719177 843.444031,506.796967 
	C846.972961,510.110718 846.793884,514.052185 843.304260,517.687317 
	C839.489197,513.958191 836.132568,510.363159 832.775879,506.768127 
z" />
	<path fill="#FEAA42" opacity="1.000000" stroke="none" d="
M832.462646,506.946899 
	C836.132568,510.363159 839.489197,513.958191 842.991089,517.869873 
	C839.831970,521.343933 836.263672,520.914246 833.017578,518.405945 
	C829.281067,515.518616 829.176453,511.973480 832.462646,506.946899 
z" />
	<path fill="#FF8C01" opacity="1.000000" stroke="none" d="
M753.187500,517.721191 
	C749.481506,514.410828 746.083862,510.879272 742.404297,507.183746 
	C745.371460,503.928467 749.084290,503.687653 752.398132,506.382690 
	C756.205566,509.479187 756.047180,513.500610 753.187500,517.721191 
z" />
	<path fill="#FF8C01" opacity="1.000000" stroke="none" d="
M812.242798,517.812500 
	C808.651917,514.438721 805.373840,510.903839 801.921753,507.058197 
	C805.078308,503.620483 808.716125,503.936279 811.841064,506.638611 
	C815.539673,509.836914 815.021362,513.798523 812.242798,517.812500 
z" />
	<path fill="transparent" opacity="1.000000" stroke="none" d="
M762.173340,513.142456 
	C764.462891,512.745483 766.657898,512.742249 769.253052,512.831360 
	C770.011353,515.173157 770.369385,517.422607 770.754150,519.839661 
	C767.435303,519.839661 764.152954,519.839661 760.721680,519.839661 
	C761.193298,517.649170 761.636047,515.592712 762.173340,513.142456 
z" />
	<path fill="#0498B8" opacity="1.000000" stroke="none" d="
M762.948792,492.084686 
	C762.198242,492.655151 761.453735,493.712738 760.696289,493.721985 
	C751.388672,493.835693 742.079102,493.796112 731.984619,493.796112 
	C732.166443,480.582733 732.643494,467.836029 740.679199,456.791626 
	C742.863159,459.995575 744.601624,462.975464 746.434326,465.896301 
	C751.919373,474.638153 757.441284,483.356903 762.948792,492.084686 
z" />
	<path fill="#0B6989" opacity="1.000000" stroke="none" d="
M763.048218,491.616302 
	C757.441284,483.356903 751.919373,474.638153 746.434326,465.896301 
	C744.601624,462.975464 742.863159,459.995575 740.994507,456.722961 
	C748.136963,456.403259 755.366577,456.403259 763.147705,456.403259 
	C763.147705,468.123779 763.147705,479.635864 763.048218,491.616302 
z" />
	<path fill="#FF8C01" opacity="1.000000" stroke="none" d="
M181.012787,514.008118 
	C180.009567,512.617126 178.381958,511.327087 178.137161,509.813416 
	C177.671844,506.936157 177.997467,503.931000 177.987259,500.523315 
	C195.888763,500.043488 213.798721,500.118988 231.705673,499.922150 
	C235.969681,499.875275 237.280731,501.554565 237.034973,505.532990 
	C236.800247,509.332672 236.966187,513.157104 236.891876,517.427490 
	C236.338928,517.912415 235.850113,517.940552 234.943985,517.608276 
	C233.519135,513.274048 231.430359,510.345215 227.096771,509.619232 
	C222.554169,508.858185 220.195114,511.868713 217.438293,514.977661 
	C210.342697,514.978577 203.708817,514.979492 196.848785,514.721130 
	C191.499588,507.706696 186.313446,507.555969 181.012787,514.008118 
z" />
	<path fill="#0C274B" opacity="1.000000" stroke="none" d="
M217.899979,514.977722 
	C220.195114,511.868713 222.554169,508.858185 227.096771,509.619232 
	C231.430359,510.345215 233.519135,513.274048 234.574783,517.577576 
	C233.505249,521.863892 231.797363,525.290649 227.158524,525.968079 
	C222.592087,526.634827 219.323730,523.981873 217.944305,517.846008 
	C217.892120,516.396240 217.896057,515.687012 217.899979,514.977722 
M221.699097,515.506775 
	C222.169403,517.639832 222.059509,520.298340 223.332779,521.704102 
	C224.068665,522.516541 227.035110,521.308655 229.640182,520.543030 
	C229.225723,518.318604 229.412109,515.596497 228.150665,514.073730 
	C227.491241,513.277771 224.286697,514.590271 221.699097,515.506775 
z" />
	<path fill="#0C274B" opacity="1.000000" stroke="none" d="
M180.946503,514.342957 
	C186.313446,507.555969 191.499588,507.706696 196.817078,515.089661 
	C197.023071,516.457458 197.034653,517.197449 197.046249,517.937439 
	C195.330612,523.471863 192.136444,526.512573 188.035751,525.949097 
	C183.900055,525.380798 181.111069,523.081055 180.557465,518.296021 
	C180.548111,516.894653 180.714172,515.786255 180.946503,514.342957 
M191.714645,521.439453 
	C191.746384,519.061829 192.697250,516.052795 191.597809,514.452209 
	C189.882355,511.955017 187.009964,512.596985 184.363312,515.481812 
	C183.636276,521.289185 185.851547,523.357361 191.714645,521.439453 
z" />
	<path fill="#DB7D05" opacity="1.000000" stroke="none" d="
M197.507721,517.998169 
	C197.034653,517.197449 197.023071,516.457458 197.043213,515.348938 
	C203.708817,514.979492 210.342697,514.978577 217.438293,514.977661 
	C217.896057,515.687012 217.892120,516.396240 217.902542,517.460388 
	C211.267654,517.896423 204.618439,517.977661 197.507721,517.998169 
z" />
	<path fill="#FF8C01" opacity="1.000000" stroke="none" d="
M822.504456,478.706696 
	C821.159363,477.065369 820.533264,475.258820 819.346069,473.968384 
	C813.389099,467.493256 807.280151,461.158051 801.234070,454.764709 
	C783.667358,436.188660 766.072327,417.639374 748.551697,399.019958 
	C734.222717,383.792389 719.969177,368.493744 705.722351,353.189178 
	C703.467163,350.766541 701.424500,348.146057 699.129517,345.320801 
	C701.461304,340.840820 703.898071,340.040527 707.783813,343.988708 
	C713.355408,349.649750 719.635498,354.605530 725.448486,360.038452 
	C742.915833,376.363770 760.262024,392.818787 777.733582,409.139587 
	C796.411072,426.586884 815.160400,443.957458 833.915161,461.321747 
	C839.750977,466.724884 845.706604,471.998566 851.573792,477.712708 
	C851.299805,478.213348 851.121521,478.394135 851.005432,478.636230 
	C841.658508,478.683960 832.311646,478.731720 822.504456,478.706696 
z" />
	<path fill="#DB7D05" opacity="1.000000" stroke="none" d="
M851.323181,478.737061 
	C851.121521,478.394135 851.299805,478.213348 851.712402,478.008911 
	C852.175537,477.994385 852.438416,478.122253 852.810303,478.478943 
	C852.511780,478.712830 852.076355,478.775360 851.323181,478.737061 
z" />
	<path fill="transparent" opacity="1.000000" stroke="none" d="
M794.316895,478.712646 
	C793.213867,470.109894 792.581848,461.600555 791.996338,452.638458 
	C800.878357,460.855103 809.713928,469.524475 818.741394,478.441742 
	C810.884766,478.728455 802.836304,478.767273 794.316895,478.712646 
z" />
	<path fill="tranparent" opacity="1.000000" stroke="none" d="
M211.023987,430.519958 
	C208.665695,430.975189 206.337296,430.963562 203.583984,430.861145 
	C203.159042,423.652527 203.159042,416.534637 203.159042,409.163513 
	C205.931747,409.163513 208.186188,409.163513 211.053879,409.163513 
	C211.053879,416.179016 211.053879,423.116058 211.023987,430.519958 
z" />
	<path fill="transparent" opacity="1.000000" stroke="none" d="
M189.159271,430.546753 
	C186.775452,430.988831 184.420700,430.961914 181.645645,430.819397 
	C181.225327,423.591858 181.225327,416.479980 181.225327,409.127991 
	C184.065414,409.127991 186.317200,409.127991 189.188370,409.127991 
	C189.188370,416.215546 189.188370,423.146698 189.159271,430.546753 
z" />
	<path fill="transparent" opacity="1.000000" stroke="none" d="
M200.021484,430.517395 
	C197.910751,431.013184 195.829407,431.042236 193.300156,431.045898 
	C192.852249,423.921844 192.852249,416.823212 192.852249,409.315125 
	C195.164246,409.315125 197.339737,409.315125 200.050873,409.315125 
	C200.050873,416.258179 200.050873,423.154449 200.021484,430.517395 
z" />
	<path fill="transparent" opacity="1.000000" stroke="none" d="
M219.044739,430.913849 
	C217.701431,430.912659 216.358139,430.911438 214.625229,430.801697 
	C214.235626,423.597198 214.235626,416.501251 214.235626,408.482574 
	C217.242828,409.095947 219.585251,409.573761 221.528229,410.479889 
	C220.286316,411.640381 218.777130,412.324524 218.720337,413.113281 
	C218.508728,416.052490 218.773849,419.026031 218.656403,422.264587 
	C218.650055,425.332916 218.847397,428.123383 219.044739,430.913849 
z" />
	<path fill="#0C274B" opacity="1.000000" stroke="none" d="
M225.722580,411.886688 
	C225.722580,411.886688 225.842270,411.551727 226.280289,411.274292 
	C228.322632,410.996887 229.926941,410.996887 232.402878,410.996887 
	C231.442261,415.146179 230.639786,418.612396 229.447052,422.059814 
	C228.020966,422.104340 226.985138,422.167664 225.882965,421.755829 
	C225.785263,418.149353 225.753922,415.018036 225.722580,411.886688 
z" />
	<path fill="#0B6989" opacity="1.000000" stroke="none" d="
M222.634415,404.100586 
	C221.985550,402.674316 221.774658,401.265686 221.584061,399.076904 
	C221.490814,397.517914 221.377258,396.739136 221.263702,395.960327 
	C222.855164,392.655396 224.256607,392.634613 226.066315,395.942871 
	C227.502350,398.567993 229.451111,400.912659 231.128998,403.746918 
	C228.414627,404.114105 225.743500,404.116211 222.634415,404.100586 
z" />
	<path fill="transparent" opacity="1.000000" stroke="none" d="
M229.837311,422.078613 
	C230.639786,418.612396 231.442261,415.146179 232.402878,410.996887 
	C229.926941,410.996887 228.322632,410.996887 226.282623,411.096466 
	C227.001236,408.464508 227.001236,408.464508 233.089203,409.407043 
	C233.089203,415.726654 233.089203,422.119110 232.671448,428.782654 
	C231.448242,426.728729 230.642792,424.403656 229.837311,422.078613 
z" />
	<path fill="#131110" opacity="1.000000" stroke="none" d="
M229.447052,422.059814 
	C230.642792,424.403656 231.448242,426.728729 232.563477,429.272125 
	C232.873230,429.490479 232.838989,429.506317 232.838104,429.523315 
	C230.614044,429.829163 228.390900,430.118011 225.944550,430.054504 
	C225.805771,428.453369 225.890198,427.204559 225.910828,425.200745 
	C225.881134,423.707489 225.915222,422.969208 225.949310,422.230957 
	C226.985138,422.167664 228.020966,422.104340 229.447052,422.059814 
z" />
	<path fill="#0C274B" opacity="1.000000" stroke="none" d="
M218.860077,421.986694 
	C218.773849,419.026031 218.508728,416.052490 218.720337,413.113281 
	C218.777130,412.324524 220.286316,411.640381 221.509781,410.902344 
	C221.935120,414.280487 221.979446,417.664520 221.577667,421.518677 
	C220.374390,421.988068 219.617233,421.987366 218.860077,421.986694 
z" />
	<path fill="#131110" opacity="1.000000" stroke="none" d="
M218.656403,422.264587 
	C219.617233,421.987366 220.374390,421.988068 221.509445,421.971436 
	C221.934265,424.608490 221.981171,427.262909 222.002884,430.352142 
	C221.244827,430.822815 220.511978,430.858643 219.411926,430.904175 
	C218.847397,428.123383 218.650055,425.332916 218.656403,422.264587 
z" />
	<path fill="#FEAA42" opacity="1.000000" stroke="none" d="
M225.882965,421.755829 
	C225.915222,422.969208 225.881134,423.707489 225.835754,424.824066 
	C225.631958,420.993896 225.439438,416.785400 225.484741,412.231812 
	C225.753922,415.018036 225.785263,418.149353 225.882965,421.755829 
z" />
	<path fill="#0498B8" opacity="1.000000" stroke="none" d="
M698.397461,493.972412 
	C696.630310,493.241272 694.164246,492.350281 694.207092,491.603241 
	C694.898438,479.552612 695.419312,467.421204 701.597656,456.668823 
	C709.956970,468.056091 719.243896,478.325439 722.832092,491.981689 
	C721.641235,492.606354 720.463989,493.739075 719.257263,493.771454 
	C712.464111,493.953796 705.663757,493.871521 698.397461,493.972412 
z" />
	<path fill="#0D6989" opacity="1.000000" stroke="none" d="
M722.900757,491.535522 
	C719.243896,478.325439 709.956970,468.056091 701.943665,456.653992 
	C702.640991,456.261200 703.423523,456.193634 704.586670,456.037048 
	C712.871826,455.947968 720.776489,455.947968 727.639526,455.947968 
	C726.037903,467.999512 724.503662,479.544464 722.900757,491.535522 
z" />
	<path fill="#FEAA42" opacity="1.000000" stroke="none" d="
M716.825684,506.742004 
	C710.901489,506.897705 705.325012,506.897705 698.912781,506.897705 
	C703.848267,503.673645 714.533142,503.824341 716.825684,506.742004 
z" />
	<path fill="#FEAA42" opacity="1.000000" stroke="none" d="
M707.077698,498.978882 
	C710.787170,498.986237 714.023621,498.986237 717.260010,498.986237 
	C717.262329,499.441833 717.264587,499.897461 717.266907,500.353058 
	C711.435669,500.353058 705.604492,500.353058 699.773254,500.353058 
	C699.737366,500.002716 699.701477,499.652374 699.665588,499.302063 
	C701.978577,499.191864 704.291626,499.081696 707.077698,498.978882 
z" />
	<path fill="transparent" opacity="1.000000" stroke="none" d="
M211.872772,463.917725 
	C216.545349,466.846344 220.880753,469.597137 225.841415,472.744690 
	C219.842697,476.538513 214.315445,480.116913 208.673248,483.503815 
	C207.918396,483.956909 206.363113,483.805176 205.550446,483.315826 
	C200.033752,479.993835 194.616928,476.506012 188.664154,472.754333 
	C194.603455,468.999908 199.875824,465.320190 205.520462,462.347412 
	C206.898773,461.621552 209.497818,463.213623 211.872772,463.917725 
z" />
	<path fill="transparent" opacity="1.000000" stroke="none" d="
M193.063919,448.350708 
	C202.241318,448.018890 211.614944,447.968933 221.444229,447.993896 
	C221.798752,448.198486 221.724380,448.373566 221.592606,448.451233 
	C216.807556,451.271942 212.054001,456.201752 207.216873,456.285950 
	C202.610397,456.366089 197.915924,451.387207 193.063919,448.350708 
z" />
	<path fill="transparent" opacity="1.000000" stroke="none" d="
M219.072861,495.618042 
	C211.671295,495.948090 204.063400,495.995026 195.946854,495.978821 
	C198.773911,493.760834 202.026154,491.454193 205.497284,489.545563 
	C206.511185,488.988037 208.370499,489.136749 209.458466,489.701355 
	C212.696838,491.381989 215.744415,493.430298 219.072861,495.618042 
z" />
	<path fill="#FF8C01" opacity="1.000000" stroke="none" d="
M236.899872,443.629028 
	C219.969849,444.041840 203.082214,444.023956 186.194565,444.010986 
	C178.028000,444.004700 178.028000,444.008881 177.975815,435.521667 
	C194.904068,435.056122 211.843735,435.019653 228.783386,434.997009 
	C236.403488,434.986816 236.933624,435.532562 236.899872,443.629028 
z" />
	<path fill="#F2F2F2" opacity="1.000000" stroke="none" d="
M221.011841,396.060120 
	C221.377258,396.739136 221.490814,397.517914 221.451492,398.668701 
	C221.119064,398.080414 220.939514,397.120148 221.011841,396.060120 
z" />
	<path fill="#FEAA42" opacity="1.000000" stroke="none" d="
M228.997665,521.010010 
	C227.035110,521.308655 224.068665,522.516541 223.332779,521.704102 
	C222.059509,520.298340 222.169403,517.639832 222.286743,515.295166 
	C224.915482,517.059082 226.956573,519.034546 228.997665,521.010010 
z" />
	<path fill="#FF8C01" opacity="1.000000" stroke="none" d="
M229.318924,520.776489 
	C226.956573,519.034546 224.915482,517.059082 222.553009,515.017029 
	C224.286697,514.590271 227.491241,513.277771 228.150665,514.073730 
	C229.412109,515.596497 229.225723,518.318604 229.318924,520.776489 
z" />
	<path fill="#FF8C01" opacity="1.000000" stroke="none" d="
M184.962097,515.038086 
	C187.009964,512.596985 189.882355,511.955017 191.597809,514.452209 
	C192.697250,516.052795 191.746384,519.061829 191.331635,521.260986 
	C188.953125,519.067688 186.957611,517.052856 184.962097,515.038086 
z" />
	<path fill="#FEAA42" opacity="1.000000" stroke="none" d="
M184.662704,515.259949 
	C186.957611,517.052856 188.953125,519.067688 191.002777,521.406616 
	C185.851547,523.357361 183.636276,521.289185 184.662704,515.259949 
z" />
</svg>